<?xml version="1.0" standalone="no"?>
<!DOCTYPE svg PUBLIC "-//W3C//DTD SVG 20010904//EN"
 "http://www.w3.org/TR/2001/REC-SVG-20010904/DTD/svg10.dtd">
<svg version="1.0" xmlns="http://www.w3.org/2000/svg"
 width="899.000000pt" height="740.000000pt" viewBox="0 0 899.000000 740.000000"
 preserveAspectRatio="xMidYMid meet">

<g transform="translate(0.000000,740.000000) scale(0.100000,-0.100000)"
fill="#ff5555" stroke="none">
<path d="M0 3700 l0 -3700 4495 0 4495 0 0 3700 0 3700 -4495 0 -4495 0 0
-3700z m5120 1165 c59 -31 69 -104 21 -157 l-29 -33 -644 -3 c-629 -2 -644 -2
-676 18 -61 38 -69 105 -18 156 l34 34 641 0 c553 0 646 -2 671 -15z m251
-334 c23 -23 29 -38 29 -71 0 -33 -6 -48 -29 -71 l-29 -29 -487 0 -486 0 -24
24 c-46 46 -45 109 2 152 l26 24 484 0 485 0 29 -29z m3 -310 c34 -32 42 -80
22 -120 -32 -61 -28 -61 -538 -61 -445 0 -464 1 -496 20 -21 13 -35 31 -38 50
-12 60 -1 96 38 120 32 20 47 20 510 18 l476 -3 26 -24z m-463 -299 c32 -36
37 -77 15 -121 -27 -50 -33 -51 -531 -51 -498 0 -504 1 -531 51 -29 56 -5 127
50 149 11 5 234 8 494 7 l474 -2 29 -33z m-6 -306 c45 -45 45 -107 0 -152
l-24 -24 -486 0 -487 0 -29 29 c-23 23 -29 38 -29 71 0 33 6 48 29 71 l29 29
487 0 486 0 24 -24z m466 -294 c49 -44 42 -125 -14 -162 -18 -13 -99 -15 -475
-18 -300 -2 -465 1 -492 8 -49 13 -75 49 -75 103 0 31 7 45 33 68 l32 29 480
0 480 0 31 -28z m0 -320 c48 -54 35 -129 -28 -161 -15 -8 -166 -11 -493 -11
l-472 0 -34 34 c-26 26 -34 43 -34 69 0 38 30 83 64 97 11 5 234 8 494 7 l474
-2 29 -33z m-256 -294 c59 -27 72 -109 26 -160 l-29 -33 -657 0 -657 0 -29 33
c-45 51 -35 127 22 158 33 18 1284 20 1324 2z"/>
</g>
</svg>
