<?xml version="1.0" standalone="no"?>
<!DOCTYPE svg PUBLIC "-//W3C//DTD SVG 20010904//EN"
 "http://www.w3.org/TR/2001/REC-SVG-20010904/DTD/svg10.dtd">
<svg version="1.0" xmlns="http://www.w3.org/2000/svg"
 width="888.000000pt" height="812.000000pt" viewBox="0 0 888.000000 812.000000"
 preserveAspectRatio="xMidYMid meet">

<g transform="translate(0.000000,812.000000) scale(0.100000,-0.100000)"
fill="#000000" stroke="none">
<path d="M1845 5460 c-9 -10 -17 -31 -17 -45 0 -14 8 -35 17 -45 18 -19 33
-20 487 -20 455 0 469 1 488 20 11 11 20 31 20 45 0 14 -9 34 -20 45 -19 19
-33 20 -488 20 -454 0 -469 -1 -487 -20z"/>
<path d="M2257 5232 c-25 -27 -22 -78 5 -96 19 -14 71 -16 364 -16 l343 0 21
27 c24 30 20 69 -7 91 -13 9 -102 12 -363 12 -323 0 -348 -1 -363 -18z"/>
<path d="M2266 5009 c-17 -13 -26 -30 -26 -49 0 -19 9 -36 26 -49 26 -20 38
-21 361 -21 l334 0 24 25 c33 32 32 68 -1 94 -26 20 -38 21 -359 21 -321 0
-333 -1 -359 -21z"/>
<path d="M4700 4403 c-51 -296 -96 -548 -98 -560 -4 -23 -3 -23 100 -23 l103
0 29 168 c16 92 32 175 35 185 5 13 22 -12 64 -95 31 -62 78 -144 105 -183
l48 -70 122 -3 c67 -1 122 0 122 3 0 4 -19 32 -43 63 -60 79 -117 165 -160
243 l-37 66 156 179 c86 98 163 187 172 197 14 16 8 17 -114 17 l-129 0 -148
-186 c-81 -103 -147 -179 -147 -170 0 10 27 171 60 358 33 188 60 343 60 345
0 1 -46 3 -103 3 l-102 0 -95 -537z"/>
<path d="M7135 4928 c-2 -7 -45 -249 -95 -538 -50 -289 -94 -535 -97 -547 -5
-23 -4 -23 99 -23 l104 0 97 553 c54 303 97 555 97 560 0 13 -200 8 -205 -5z"/>
<path d="M1925 4795 c-30 -29 -32 -55 -6 -86 l19 -24 333 -3 c237 -2 341 1
361 9 49 20 50 101 2 119 -14 6 -167 10 -355 10 l-330 0 -24 -25z"/>
<path d="M3535 4599 c-233 -35 -386 -254 -373 -534 7 -144 38 -207 123 -246
105 -49 219 7 315 154 45 69 46 67 25 -53 -8 -47 -15 -88 -15 -92 0 -5 44 -8
98 -8 l97 0 59 333 c32 182 60 344 63 359 5 23 1 29 -29 41 -94 39 -265 61
-363 46z m169 -160 c3 -3 -3 -46 -13 -96 -41 -200 -194 -411 -275 -380 -79 30
-62 271 27 395 17 24 50 55 72 68 35 22 50 24 112 22 39 -2 74 -6 77 -9z"/>
<path d="M5811 4599 c-214 -37 -373 -267 -358 -519 7 -131 53 -206 152 -252
75 -34 221 -32 324 5 103 36 106 40 85 113 -9 32 -18 60 -19 62 -2 2 -20 -5
-42 -16 -21 -11 -62 -25 -91 -31 -145 -31 -212 5 -212 113 0 51 -17 43 145 65
232 32 376 195 306 346 -44 95 -153 138 -290 114z m103 -155 c28 -27 20 -82
-15 -115 -46 -43 -219 -86 -219 -55 0 20 35 97 57 124 47 58 141 83 177 46z"/>
<path d="M6572 4600 c-82 -12 -173 -62 -231 -126 -143 -156 -182 -429 -82
-569 62 -86 200 -123 347 -92 90 19 174 55 174 74 0 8 -7 39 -15 68 l-16 53
-62 -26 c-49 -20 -80 -26 -144 -26 -77 -1 -84 1 -109 26 -21 21 -28 39 -32 82
l-4 55 33 5 c19 3 59 7 90 10 132 13 258 75 313 154 41 60 47 150 14 212 -42
78 -154 119 -276 100z m93 -154 c32 -23 25 -83 -13 -117 -45 -41 -222 -86
-222 -57 0 47 85 165 130 181 29 11 86 7 105 -7z"/>
<path d="M4487 4587 c-49 -16 -100 -67 -131 -131 -28 -58 -31 -44 -12 62 l13
72 -98 0 c-55 0 -99 -1 -99 -2 -1 -2 -31 -174 -68 -383 l-68 -380 99 -3 c55
-1 101 -1 103 1 2 2 20 93 39 203 19 109 37 208 40 219 7 33 74 104 118 126
23 12 62 22 93 22 l53 2 17 93 c9 51 14 95 11 98 -11 12 -75 12 -110 1z"/>
<path d="M1920 4570 c-11 -11 -20 -31 -20 -45 0 -14 9 -34 20 -45 19 -19 33
-20 368 -20 325 0 350 1 365 18 25 27 22 78 -5 96 -19 14 -71 16 -365 16 -330
0 -344 -1 -363 -20z"/>
<path d="M2257 4362 c-22 -25 -21 -75 1 -95 17 -15 57 -17 365 -17 334 0 348
1 367 20 11 11 20 31 20 45 0 14 -9 34 -20 45 -19 19 -33 20 -368 20 -325 0
-350 -1 -365 -18z"/>
<path d="M2274 4148 c-47 -22 -50 -93 -5 -117 13 -7 137 -11 351 -11 214 0
338 4 351 11 25 13 40 50 32 78 -12 48 -39 51 -385 50 -201 0 -331 -4 -344
-11z"/>
<path d="M1845 3905 c-30 -29 -32 -55 -6 -86 l19 -24 466 -3 466 -3 25 25 c32
32 32 60 0 91 l-24 25 -461 0 -461 0 -24 -25z"/>
</g>
</svg>
