<?xml version="1.0" standalone="no"?>
<!DOCTYPE svg PUBLIC "-//W3C//DTD SVG 20010904//EN"
 "http://www.w3.org/TR/2001/REC-SVG-20010904/DTD/svg10.dtd">
<svg version="1.0" xmlns="http://www.w3.org/2000/svg"
 width="900.000000pt" height="900.000000pt" viewBox="0 0 900.000000 900.000000"
 preserveAspectRatio="xMidYMid meet">

<g transform="translate(0.000000,900.000000) scale(0.100000,-0.100000)"
fill="#000000" stroke="none">
<path d="M10 8981 c-7 -14 -10 -1425 -10 -4480 0 -4448 0 -4461 20 -4481 20
-20 33 -20 4481 -20 3055 0 4466 3 4480 10 19 11 19 72 19 4488 0 3470 -3
4481 -12 4490 -9 9 -1020 12 -4490 12 -4416 0 -4477 0 -4488 -19z m2901 -3520
c25 -30 24 -76 -1 -101 -19 -19 -33 -20 -495 -20 -462 0 -476 1 -495 20 -30
30 -27 83 7 110 26 20 32 21 496 18 l469 -3 19 -24z m158 -218 c32 -27 37 -73
11 -106 l-21 -27 -354 0 c-352 0 -354 0 -375 22 -29 32 -27 81 6 107 26 20 38
21 369 21 312 0 345 -2 364 -17z m8 -235 c31 -29 30 -72 -2 -103 l-24 -25
-346 0 -346 0 -24 25 c-30 30 -32 64 -4 99 l20 26 352 0 c346 0 351 0 374 -22z
m2013 -70 c0 -7 -27 -164 -60 -348 -32 -184 -58 -336 -56 -337 2 -2 60 69 130
156 70 88 134 167 142 176 12 12 42 15 143 15 70 0 130 -3 134 -6 3 -3 -72
-95 -168 -204 l-174 -198 49 -85 c50 -88 96 -155 162 -240 21 -27 38 -53 38
-58 0 -6 -54 -8 -132 -7 l-132 3 -58 85 c-31 47 -79 127 -105 179 l-47 95 -33
-180 c-17 -98 -32 -180 -32 -181 -2 -8 -221 -2 -221 6 0 10 187 1084 195 1119
5 21 9 22 115 22 82 0 110 -3 110 -12z m2340 0 c0 -16 -189 -1098 -196 -1120
-5 -16 -19 -18 -115 -18 -60 0 -109 3 -109 6 0 7 188 1079 196 1117 l6 27 109
0 c79 0 109 -3 109 -12z m-4690 -138 c30 -30 27 -83 -6 -109 -26 -20 -38 -21
-360 -21 -228 0 -341 4 -358 11 -46 21 -51 94 -9 127 13 9 102 12 365 12 335
0 349 -1 368 -20z m1178 -223 c46 -13 88 -29 94 -35 7 -7 -11 -126 -54 -373
l-64 -364 -107 -3 c-59 -1 -107 1 -107 5 0 4 7 46 15 93 8 47 15 87 15 90 0 3
-15 -18 -34 -45 -41 -61 -107 -122 -152 -141 -47 -20 -121 -17 -171 6 -136 61
-164 351 -56 564 53 104 165 194 278 223 77 19 242 10 343 -20z m2133 23 c157
-44 207 -220 97 -344 -54 -62 -157 -111 -272 -131 -49 -8 -99 -15 -112 -15
-21 0 -24 -5 -24 -40 0 -55 24 -98 58 -106 15 -3 32 -7 37 -9 25 -7 144 18
192 40 38 17 55 21 58 12 2 -7 11 -38 21 -71 20 -72 16 -77 -87 -113 -108 -38
-243 -43 -323 -13 -34 13 -74 38 -97 61 -100 100 -103 329 -6 512 34 64 123
153 183 182 87 42 199 56 275 35z m765 -5 c54 -16 115 -70 133 -118 27 -71 6
-161 -51 -223 -73 -80 -160 -117 -316 -136 l-94 -11 5 -50 c3 -35 11 -56 30
-74 22 -23 33 -25 96 -25 65 1 106 12 206 58 10 4 45 -105 45 -139 0 -33 -177
-87 -285 -87 -224 0 -331 133 -304 378 21 184 110 326 249 397 90 46 196 57
286 30z m-4077 -19 c27 -24 28 -76 2 -107 l-19 -24 -351 0 c-337 0 -351 1
-370 20 -11 11 -23 32 -26 47 -6 22 -1 33 24 58 l30 31 345 -3 c322 -3 345 -4
365 -22z m1704 -1 c-1 -11 -5 -40 -8 -65 l-7 -45 20 30 c48 76 113 110 197
103 39 -3 40 -4 39 -38 -1 -19 -7 -68 -13 -107 l-13 -73 -51 0 c-29 0 -70 -9
-92 -19 -42 -19 -109 -85 -119 -117 -3 -11 -21 -111 -41 -224 -20 -112 -39
-208 -41 -212 -5 -9 -207 -11 -216 -3 -4 5 126 754 136 781 5 12 25 14 108 12
96 -3 103 -4 101 -23z m-1383 -200 c56 -29 48 -113 -12 -134 -20 -7 -149 -11
-345 -11 -346 0 -376 4 -389 56 -9 37 6 76 36 91 19 9 110 13 353 13 274 0
333 -3 357 -15z m11 -234 c32 -26 32 -86 0 -112 -22 -18 -46 -19 -370 -19
-336 0 -348 1 -369 20 -29 27 -29 76 0 107 l21 23 348 0 c324 0 348 -1 370
-19z m-162 -237 c28 -35 26 -69 -4 -99 l-24 -25 -464 0 c-455 0 -465 0 -491
21 -33 26 -36 79 -6 109 19 19 33 20 494 20 l475 0 20 -26z"/>
<path d="M3612 4419 c-90 -45 -152 -174 -155 -320 -2 -93 16 -129 65 -129 78
0 213 210 242 376 8 43 13 81 11 82 -2 2 -30 6 -62 9 -46 3 -67 0 -101 -18z"/>
<path d="M5867 4425 c-36 -25 -97 -115 -97 -144 0 -11 10 -12 46 -7 121 16
184 57 184 120 0 60 -66 76 -133 31z"/>
<path d="M6632 4433 c-39 -19 -112 -123 -112 -160 0 -11 114 8 154 26 74 33
105 92 67 130 -25 25 -64 27 -109 4z"/>
</g>
</svg>
